<?xml version="1.0" encoding="utf-8"?>
<!-- Generator: Adobe Illustrator 27.8.1, SVG Export Plug-In . SVG Version: 6.00 Build 0)  -->
<svg version="1.0" id="Layer_1" xmlns="http://www.w3.org/2000/svg" xmlns:xlink="http://www.w3.org/1999/xlink" x="0px" y="0px"
	 viewBox="0 0 252 144" style="enable-background:new 0 0 252 144;" xml:space="preserve">
<style type="text/css">
	.st0{fill:none;}
	.st1{fill:#09D9CB;}
	.st2{fill:#13D5C4;}
	.st3{font-family:'RossettiW00-Regular';}
	.st4{font-size:18.7206px;}
	.st5{fill:#0DD9CB;}
	.st6{fill:#FFFFFF;}
	.st7{fill:#F2D5C4;}
</style>
<g id="Layer_2">
</g>
<g>
	<line class="st0" x1="87.5" y1="84.9" x2="166.5" y2="84.9"/>
	<g>
		<path class="st1" d="M107.3,82.8c-0.5,0.5-1.2,1.1-1.8,1.6c-1,0.7-2.2,1-2.2,0.9c-0.6-6.6-1.8-16.3-1.5-23.6
			c-0.8-0.4-1.6-0.6-2.2,0.2c-0.1,0.1-0.1,0.2-0.2,0.3c-0.5,7.7,0.9,15.6,2.4,23.3c0,0.1-1.4,0.2-2.6-0.3c-0.6-0.3-1.3-0.6-1.8-1
			c-0.1-0.1,0.3-0.2,0.2-0.2c-0.7-0.5-1.7-0.8-1.7-0.8c0.1,0.5,0.5,1.4,1,1.9c0.1,0.1,0.1-0.3,0.1-0.3c1.6,1.4,4.7,3.8,6,4
			c1.2-0.7,3.8-3.8,5-5.7c0,0,0.2,0.3,0.2,0.2c0.1-0.2,0.3-1.4,0.4-1.6c0,0-1.2,0.8-1.3,0.9C107,82.7,107.3,82.8,107.3,82.8z"/>
	</g>
	<text transform="matrix(0.9243 0 0 1 93.3359 79.9087)" class="st2 st3 st4">ankored</text>
	<circle class="st5" cx="100.4" cy="58.8" r="3.8"/>
	<circle class="st6" cx="100.4" cy="58.8" r="2.1"/>
	<path class="st7" d="M164.5,87.6c0-0.7-17-10.4-38-2.6c-21.5,7.9-41,1.9-41,2.6s17.7,1.3,39.5,1.3S164.5,88.3,164.5,87.6z"/>
</g>
</svg>
